  http://www.hotimg.com/direct/EXNNXpN.jpg

Screens:
  
http://www.hotimg.com/direct/xUaEkfy.jpg
  
http://www.hotimg.com/direct/sTrN9Pf.jpg
  
http://www.hotimg.com/direct/nDnypmu.jpg
  
http://www.hotimg.com/direct/AjPfHK3.jpg

Alternative:
  
http://www.postimg.com/image/48000/photo-47798.jpg
  
http://www.postimg.com/image/48000/photo-47799.jpg
  
http://www.postimg.com/image/48000/photo-47800.jpg
  
http://www.postimg.com/image/48000/photo-47801.jpg

ScreenCaps:
  
http://www.postimg.com/image/48000/photo-47803.jpg

Transformers 3 Dark of the Moon (2011) DVDRip XviD-MAX 
Format                           : AVI
Format/Info                      : Audio Video Interleave
Format profile                   : OpenDML
File size                        : 1.43 GiB
Duration                         : 2h 34mn
Overall bit rate                 : 1 324 Kbps
Writing application              : VirtualDubMod 1.5.10.2 (build 2542/release)
Writing library                  : VirtualDubMod build 2542/release
Original source form             : MAX TORRENTZ
Copyright                        : SIGISMUNT


Video
ID                               : 0
Format                           : MPEG-4 Visual
Format profile                   : AdvancedSimple@L5
Format settings, BVOP            : Yes
Format settings, QPel            : No
Format settings, GMC             : No warppoints
Format settings, Matrix          : Default (H.263)
Muxing mode                      : Packed bitstream
Codec ID                         : XVID
Codec ID/Hint                    : XviD
Duration                         : 2h 34mn
Bit rate                         : 1 128 Kbps
Width                            : 624 pixels
Height                           : 256 pixels
Display aspect ratio             : 2.40:1
Frame rate                       : 23.976 fps
Resolution                       : 24 bits
Colorimetry                      : 4:2:0
Scan type                        : Progressive
Bits/(Pixel*Frame)               : 0.295
Stream size                      : 1.22 GiB (85%)
Writing library                  : XviD 63

Audio
ID                               : 1
Format                           : MPEG Audio
Format version                   : Version 1
Format profile                   : Layer 3
Codec ID                         : 55
Codec ID/Hint                    : MP3
Duration                         : 2h 34mn
Bit rate mode                    : Constant
Bit rate                         : 192 Kbps
Channel(s)                       : 2 channels
Sampling rate                    : 48.0 KHz
Resolution                       : 16 bits
Stream size                      : 212 MiB (15%)
Alignment                        : Aligned on interleaves
Interleave, duration             : 649 ms (15.56 video frames)
Interleave, preload duration     : 216 ms
  
http://www.imdb.com/title/tt1399103/